<mxfile host="app.diagrams.net" modified="2023-12-17T22:44:24.444Z" agent="Mozilla/5.0 (Macintosh; Intel Mac OS X 10_15_7) AppleWebKit/537.36 (KHTML, like Gecko) Chrome/120.0.0.0 Safari/537.36" etag="519fsy-LLuYw0G8QmgKs" version="22.1.11" type="github">
  <diagram name="overall er" id="CqrkfWvKqjEvy0J3rS-4">
    <mxGraphModel dx="1585" dy="615" grid="1" gridSize="10" guides="1" tooltips="1" connect="1" arrows="1" fold="1" page="1" pageScale="1" pageWidth="827" pageHeight="1169" math="0" shadow="0">
      <root>
        <mxCell id="0" />
        <mxCell id="1" parent="0" />
        <mxCell id="Isf6Fnb0qAEW2lczfsNk-14" style="rounded=1;orthogonalLoop=1;jettySize=auto;html=1;entryX=0.5;entryY=1;entryDx=0;entryDy=0;sketch=1;curveFitting=1;jiggle=2;endArrow=none;endFill=0;" parent="1" source="Isf6Fnb0qAEW2lczfsNk-3" target="Isf6Fnb0qAEW2lczfsNk-6" edge="1">
          <mxGeometry relative="1" as="geometry" />
        </mxCell>
        <mxCell id="Isf6Fnb0qAEW2lczfsNk-3" value="File" style="rounded=1;whiteSpace=wrap;html=1;fillColor=#e1d5e7;strokeColor=#9673a6;sketch=1;curveFitting=1;jiggle=2;fillStyle=hachure;" parent="1" vertex="1">
          <mxGeometry x="160" y="540" width="120" height="60" as="geometry" />
        </mxCell>
        <mxCell id="Isf6Fnb0qAEW2lczfsNk-4" value="User" style="rounded=1;whiteSpace=wrap;html=1;fillColor=#e1d5e7;strokeColor=#9673a6;sketch=1;curveFitting=1;jiggle=2;fillStyle=hachure;" parent="1" vertex="1">
          <mxGeometry x="520" y="540" width="120" height="60" as="geometry" />
        </mxCell>
        <mxCell id="Isf6Fnb0qAEW2lczfsNk-5" value="Authority" style="rounded=1;whiteSpace=wrap;html=1;fillColor=#e1d5e7;strokeColor=#9673a6;sketch=1;curveFitting=1;jiggle=2;fillStyle=hachure;" parent="1" vertex="1">
          <mxGeometry x="940" y="540" width="120" height="60" as="geometry" />
        </mxCell>
        <mxCell id="Isf6Fnb0qAEW2lczfsNk-6" value="File Type" style="ellipse;whiteSpace=wrap;html=1;fillColor=#fff2cc;strokeColor=#d6b656;fillStyle=hatch;sketch=1;curveFitting=1;jiggle=2;" parent="1" vertex="1">
          <mxGeometry x="180" y="390" width="85" height="40" as="geometry" />
        </mxCell>
        <mxCell id="Isf6Fnb0qAEW2lczfsNk-7" value="File Name" style="ellipse;whiteSpace=wrap;html=1;fillColor=#fff2cc;strokeColor=#d6b656;fillStyle=hatch;sketch=1;curveFitting=1;jiggle=2;" parent="1" vertex="1">
          <mxGeometry x="80" y="400" width="80" height="40" as="geometry" />
        </mxCell>
        <mxCell id="Isf6Fnb0qAEW2lczfsNk-8" value="File Path" style="ellipse;whiteSpace=wrap;html=1;fillColor=#fff2cc;strokeColor=#d6b656;fillStyle=hatch;sketch=1;curveFitting=1;jiggle=2;" parent="1" vertex="1">
          <mxGeometry x="15" y="450" width="90" height="40" as="geometry" />
        </mxCell>
        <mxCell id="Isf6Fnb0qAEW2lczfsNk-9" value="File Storage idWork Name" style="ellipse;whiteSpace=wrap;html=1;fillColor=#fff2cc;strokeColor=#d6b656;fillStyle=hatch;sketch=1;curveFitting=1;jiggle=2;" parent="1" vertex="1">
          <mxGeometry x="-20" y="500" width="90" height="40" as="geometry" />
        </mxCell>
        <mxCell id="Isf6Fnb0qAEW2lczfsNk-10" value="id" style="ellipse;whiteSpace=wrap;html=1;fillColor=#fff2cc;strokeColor=#d6b656;fillStyle=hatch;sketch=1;curveFitting=1;jiggle=2;" parent="1" vertex="1">
          <mxGeometry x="-10" y="550" width="90" height="40" as="geometry" />
        </mxCell>
        <mxCell id="Isf6Fnb0qAEW2lczfsNk-11" value="Upload Time" style="ellipse;whiteSpace=wrap;html=1;fillColor=#fff2cc;strokeColor=#d6b656;fillStyle=hatch;sketch=1;curveFitting=1;jiggle=2;" parent="1" vertex="1">
          <mxGeometry x="20" y="610" width="85" height="40" as="geometry" />
        </mxCell>
        <mxCell id="Isf6Fnb0qAEW2lczfsNk-12" value="File Size" style="ellipse;whiteSpace=wrap;html=1;fillColor=#fff2cc;strokeColor=#d6b656;fillStyle=hatch;sketch=1;curveFitting=1;jiggle=2;" parent="1" vertex="1">
          <mxGeometry x="90" y="660" width="90" height="40" as="geometry" />
        </mxCell>
        <mxCell id="Isf6Fnb0qAEW2lczfsNk-17" style="rounded=1;orthogonalLoop=1;jettySize=auto;html=1;entryX=1;entryY=1;entryDx=0;entryDy=0;sketch=1;curveFitting=1;jiggle=2;endArrow=none;endFill=0;exitX=0.5;exitY=0;exitDx=0;exitDy=0;" parent="1" source="Isf6Fnb0qAEW2lczfsNk-3" target="Isf6Fnb0qAEW2lczfsNk-7" edge="1">
          <mxGeometry relative="1" as="geometry">
            <mxPoint x="170" y="530" as="sourcePoint" />
            <mxPoint x="170" y="360" as="targetPoint" />
          </mxGeometry>
        </mxCell>
        <mxCell id="Isf6Fnb0qAEW2lczfsNk-18" style="rounded=1;orthogonalLoop=1;jettySize=auto;html=1;entryX=1;entryY=1;entryDx=0;entryDy=0;sketch=1;curveFitting=1;jiggle=2;endArrow=none;endFill=0;exitX=0;exitY=0.5;exitDx=0;exitDy=0;" parent="1" source="Isf6Fnb0qAEW2lczfsNk-3" target="Isf6Fnb0qAEW2lczfsNk-8" edge="1">
          <mxGeometry relative="1" as="geometry">
            <mxPoint x="130" y="570" as="sourcePoint" />
            <mxPoint x="130" y="400" as="targetPoint" />
          </mxGeometry>
        </mxCell>
        <mxCell id="Isf6Fnb0qAEW2lczfsNk-19" style="rounded=1;orthogonalLoop=1;jettySize=auto;html=1;entryX=1;entryY=0.5;entryDx=0;entryDy=0;sketch=1;curveFitting=1;jiggle=2;endArrow=none;endFill=0;exitX=0;exitY=0.5;exitDx=0;exitDy=0;" parent="1" source="Isf6Fnb0qAEW2lczfsNk-3" target="Isf6Fnb0qAEW2lczfsNk-9" edge="1">
          <mxGeometry relative="1" as="geometry">
            <mxPoint x="89" y="650" as="sourcePoint" />
            <mxPoint x="89" y="480" as="targetPoint" />
          </mxGeometry>
        </mxCell>
        <mxCell id="Isf6Fnb0qAEW2lczfsNk-20" style="rounded=1;orthogonalLoop=1;jettySize=auto;html=1;entryX=1;entryY=0.394;entryDx=0;entryDy=0;sketch=1;curveFitting=1;jiggle=2;endArrow=none;endFill=0;entryPerimeter=0;" parent="1" target="Isf6Fnb0qAEW2lczfsNk-10" edge="1">
          <mxGeometry relative="1" as="geometry">
            <mxPoint x="160" y="570" as="sourcePoint" />
            <mxPoint x="100" y="510" as="targetPoint" />
          </mxGeometry>
        </mxCell>
        <mxCell id="Isf6Fnb0qAEW2lczfsNk-21" style="rounded=1;orthogonalLoop=1;jettySize=auto;html=1;sketch=1;curveFitting=1;jiggle=2;endArrow=none;endFill=0;entryX=0;entryY=0.75;entryDx=0;entryDy=0;exitX=1;exitY=0;exitDx=0;exitDy=0;" parent="1" source="Isf6Fnb0qAEW2lczfsNk-11" target="Isf6Fnb0qAEW2lczfsNk-3" edge="1">
          <mxGeometry relative="1" as="geometry">
            <mxPoint x="219.5" y="775" as="sourcePoint" />
            <mxPoint x="240" y="610" as="targetPoint" />
          </mxGeometry>
        </mxCell>
        <mxCell id="Isf6Fnb0qAEW2lczfsNk-22" style="rounded=1;orthogonalLoop=1;jettySize=auto;html=1;entryX=0.5;entryY=1;entryDx=0;entryDy=0;sketch=1;curveFitting=1;jiggle=2;endArrow=none;endFill=0;exitX=0.5;exitY=0;exitDx=0;exitDy=0;" parent="1" source="Isf6Fnb0qAEW2lczfsNk-12" target="Isf6Fnb0qAEW2lczfsNk-3" edge="1">
          <mxGeometry relative="1" as="geometry">
            <mxPoint x="289" y="740" as="sourcePoint" />
            <mxPoint x="289" y="570" as="targetPoint" />
          </mxGeometry>
        </mxCell>
        <mxCell id="Isf6Fnb0qAEW2lczfsNk-23" style="rounded=1;orthogonalLoop=1;jettySize=auto;html=1;sketch=1;curveFitting=1;jiggle=2;endArrow=none;endFill=0;exitX=0.5;exitY=0;exitDx=0;exitDy=0;" parent="1" source="Isf6Fnb0qAEW2lczfsNk-26" edge="1">
          <mxGeometry relative="1" as="geometry">
            <mxPoint x="220" y="820" as="sourcePoint" />
            <mxPoint x="220" y="600" as="targetPoint" />
            <Array as="points" />
          </mxGeometry>
        </mxCell>
        <mxCell id="Isf6Fnb0qAEW2lczfsNk-24" style="rounded=1;orthogonalLoop=1;jettySize=auto;html=1;entryX=1;entryY=0.5;entryDx=0;entryDy=0;sketch=1;curveFitting=1;jiggle=2;endArrow=none;endFill=0;exitX=0;exitY=0.5;exitDx=0;exitDy=0;" parent="1" source="Isf6Fnb0qAEW2lczfsNk-48" target="Isf6Fnb0qAEW2lczfsNk-3" edge="1">
          <mxGeometry relative="1" as="geometry">
            <mxPoint x="320" y="790" as="sourcePoint" />
            <mxPoint x="320" y="620" as="targetPoint" />
          </mxGeometry>
        </mxCell>
        <mxCell id="Isf6Fnb0qAEW2lczfsNk-25" style="rounded=1;orthogonalLoop=1;jettySize=auto;html=1;entryX=0;entryY=0.5;entryDx=0;entryDy=0;sketch=1;curveFitting=1;jiggle=2;endArrow=none;endFill=0;exitX=1;exitY=0.5;exitDx=0;exitDy=0;" parent="1" source="Isf6Fnb0qAEW2lczfsNk-26" target="Isf6Fnb0qAEW2lczfsNk-27" edge="1">
          <mxGeometry relative="1" as="geometry">
            <mxPoint x="360" y="870" as="sourcePoint" />
            <mxPoint x="360" y="700" as="targetPoint" />
          </mxGeometry>
        </mxCell>
        <mxCell id="Isf6Fnb0qAEW2lczfsNk-26" value="Contain" style="rhombus;whiteSpace=wrap;html=1;fillColor=#dae8fc;strokeColor=#6c8ebf;fillStyle=hatch;sketch=1;curveFitting=1;jiggle=2;" parent="1" vertex="1">
          <mxGeometry x="150" y="790" width="140" height="80" as="geometry" />
        </mxCell>
        <mxCell id="Isf6Fnb0qAEW2lczfsNk-27" value="File&amp;nbsp; Class" style="rounded=1;whiteSpace=wrap;html=1;fillColor=#e1d5e7;strokeColor=#9673a6;sketch=1;curveFitting=1;jiggle=2;fillStyle=hachure;" parent="1" vertex="1">
          <mxGeometry x="530" y="808" width="120" height="60" as="geometry" />
        </mxCell>
        <mxCell id="Isf6Fnb0qAEW2lczfsNk-28" value="File Extension&lt;br&gt;&amp;nbsp;Name" style="ellipse;whiteSpace=wrap;html=1;fillColor=#fff2cc;strokeColor=#d6b656;fillStyle=hatch;sketch=1;curveFitting=1;jiggle=2;" parent="1" vertex="1">
          <mxGeometry x="747" y="740" width="90" height="40" as="geometry" />
        </mxCell>
        <mxCell id="Isf6Fnb0qAEW2lczfsNk-29" style="rounded=1;orthogonalLoop=1;jettySize=auto;html=1;entryX=1;entryY=0.5;entryDx=0;entryDy=0;sketch=1;curveFitting=1;jiggle=2;endArrow=none;endFill=0;exitX=0;exitY=0.5;exitDx=0;exitDy=0;" parent="1" source="Isf6Fnb0qAEW2lczfsNk-33" target="Isf6Fnb0qAEW2lczfsNk-27" edge="1">
          <mxGeometry relative="1" as="geometry">
            <mxPoint x="710" y="1040" as="sourcePoint" />
            <mxPoint x="710" y="870" as="targetPoint" />
          </mxGeometry>
        </mxCell>
        <mxCell id="Isf6Fnb0qAEW2lczfsNk-30" style="rounded=1;orthogonalLoop=1;jettySize=auto;html=1;entryX=0;entryY=0.5;entryDx=0;entryDy=0;sketch=1;curveFitting=1;jiggle=2;endArrow=none;endFill=0;exitX=1;exitY=0.5;exitDx=0;exitDy=0;" parent="1" source="Isf6Fnb0qAEW2lczfsNk-27" target="Isf6Fnb0qAEW2lczfsNk-32" edge="1">
          <mxGeometry relative="1" as="geometry">
            <mxPoint x="329" y="780" as="sourcePoint" />
            <mxPoint x="329" y="610" as="targetPoint" />
          </mxGeometry>
        </mxCell>
        <mxCell id="Isf6Fnb0qAEW2lczfsNk-31" style="rounded=1;orthogonalLoop=1;jettySize=auto;html=1;entryX=0;entryY=1;entryDx=0;entryDy=0;sketch=1;curveFitting=1;jiggle=2;endArrow=none;endFill=0;exitX=1;exitY=0.5;exitDx=0;exitDy=0;" parent="1" source="Isf6Fnb0qAEW2lczfsNk-27" target="Isf6Fnb0qAEW2lczfsNk-28" edge="1">
          <mxGeometry relative="1" as="geometry">
            <mxPoint x="339" y="790" as="sourcePoint" />
            <mxPoint x="339" y="620" as="targetPoint" />
          </mxGeometry>
        </mxCell>
        <mxCell id="Isf6Fnb0qAEW2lczfsNk-32" value="Id" style="ellipse;whiteSpace=wrap;html=1;fillColor=#fff2cc;strokeColor=#d6b656;fillStyle=hatch;sketch=1;curveFitting=1;jiggle=2;" parent="1" vertex="1">
          <mxGeometry x="747" y="810" width="90" height="40" as="geometry" />
        </mxCell>
        <mxCell id="Isf6Fnb0qAEW2lczfsNk-33" value="File Type Id" style="ellipse;whiteSpace=wrap;html=1;fillColor=#fff2cc;strokeColor=#d6b656;fillStyle=hatch;sketch=1;curveFitting=1;jiggle=2;" parent="1" vertex="1">
          <mxGeometry x="747" y="870" width="90" height="40" as="geometry" />
        </mxCell>
        <mxCell id="Isf6Fnb0qAEW2lczfsNk-34" value="1" style="text;html=1;align=center;verticalAlign=middle;resizable=0;points=[];autosize=1;strokeColor=none;fillColor=none;" parent="1" vertex="1">
          <mxGeometry x="235" y="678" width="30" height="30" as="geometry" />
        </mxCell>
        <mxCell id="Isf6Fnb0qAEW2lczfsNk-35" value="1" style="text;html=1;align=center;verticalAlign=middle;resizable=0;points=[];autosize=1;strokeColor=none;fillColor=none;" parent="1" vertex="1">
          <mxGeometry x="395" y="808" width="30" height="30" as="geometry" />
        </mxCell>
        <mxCell id="Isf6Fnb0qAEW2lczfsNk-36" value="Storage Capacity" style="ellipse;whiteSpace=wrap;html=1;fillColor=#fff2cc;strokeColor=#d6b656;fillStyle=hatch;sketch=1;curveFitting=1;jiggle=2;" parent="1" vertex="1">
          <mxGeometry x="380" y="470" width="90" height="40" as="geometry" />
        </mxCell>
        <mxCell id="Isf6Fnb0qAEW2lczfsNk-37" value="Id" style="ellipse;whiteSpace=wrap;html=1;fillColor=#fff2cc;strokeColor=#d6b656;fillStyle=hatch;sketch=1;curveFitting=1;jiggle=2;" parent="1" vertex="1">
          <mxGeometry x="400" y="410" width="90" height="40" as="geometry" />
        </mxCell>
        <mxCell id="Isf6Fnb0qAEW2lczfsNk-38" value="Name" style="ellipse;whiteSpace=wrap;html=1;fillColor=#fff2cc;strokeColor=#d6b656;fillStyle=hatch;sketch=1;curveFitting=1;jiggle=2;" parent="1" vertex="1">
          <mxGeometry x="480" y="360" width="90" height="40" as="geometry" />
        </mxCell>
        <mxCell id="Isf6Fnb0qAEW2lczfsNk-39" value="Email" style="ellipse;whiteSpace=wrap;html=1;fillColor=#fff2cc;strokeColor=#d6b656;fillStyle=hatch;sketch=1;curveFitting=1;jiggle=2;" parent="1" vertex="1">
          <mxGeometry x="590" y="360" width="90" height="40" as="geometry" />
        </mxCell>
        <mxCell id="Isf6Fnb0qAEW2lczfsNk-40" value="Password" style="ellipse;whiteSpace=wrap;html=1;fillColor=#fff2cc;strokeColor=#d6b656;fillStyle=hatch;sketch=1;curveFitting=1;jiggle=2;" parent="1" vertex="1">
          <mxGeometry x="670" y="410" width="90" height="40" as="geometry" />
        </mxCell>
        <mxCell id="Isf6Fnb0qAEW2lczfsNk-41" value="Avatar" style="ellipse;whiteSpace=wrap;html=1;fillColor=#fff2cc;strokeColor=#d6b656;fillStyle=hatch;sketch=1;curveFitting=1;jiggle=2;" parent="1" vertex="1">
          <mxGeometry x="690" y="470" width="90" height="40" as="geometry" />
        </mxCell>
        <mxCell id="Isf6Fnb0qAEW2lczfsNk-42" style="rounded=1;orthogonalLoop=1;jettySize=auto;html=1;entryX=1;entryY=1;entryDx=0;entryDy=0;sketch=1;curveFitting=1;jiggle=2;endArrow=none;endFill=0;exitX=0.25;exitY=0;exitDx=0;exitDy=0;" parent="1" source="Isf6Fnb0qAEW2lczfsNk-4" target="Isf6Fnb0qAEW2lczfsNk-36" edge="1">
          <mxGeometry relative="1" as="geometry">
            <mxPoint x="350" y="708" as="sourcePoint" />
            <mxPoint x="460" y="644" as="targetPoint" />
          </mxGeometry>
        </mxCell>
        <mxCell id="Isf6Fnb0qAEW2lczfsNk-43" style="rounded=1;orthogonalLoop=1;jettySize=auto;html=1;entryX=1;entryY=1;entryDx=0;entryDy=0;sketch=1;curveFitting=1;jiggle=2;endArrow=none;endFill=0;exitX=0.25;exitY=0;exitDx=0;exitDy=0;" parent="1" source="Isf6Fnb0qAEW2lczfsNk-4" target="Isf6Fnb0qAEW2lczfsNk-37" edge="1">
          <mxGeometry relative="1" as="geometry">
            <mxPoint x="610" y="708" as="sourcePoint" />
            <mxPoint x="720" y="644" as="targetPoint" />
          </mxGeometry>
        </mxCell>
        <mxCell id="Isf6Fnb0qAEW2lczfsNk-44" style="rounded=1;orthogonalLoop=1;jettySize=auto;html=1;entryX=0.5;entryY=1;entryDx=0;entryDy=0;sketch=1;curveFitting=1;jiggle=2;endArrow=none;endFill=0;exitX=0.5;exitY=0;exitDx=0;exitDy=0;" parent="1" source="Isf6Fnb0qAEW2lczfsNk-4" target="Isf6Fnb0qAEW2lczfsNk-38" edge="1">
          <mxGeometry relative="1" as="geometry">
            <mxPoint x="590" y="714" as="sourcePoint" />
            <mxPoint x="700" y="650" as="targetPoint" />
          </mxGeometry>
        </mxCell>
        <mxCell id="Isf6Fnb0qAEW2lczfsNk-45" style="rounded=1;orthogonalLoop=1;jettySize=auto;html=1;entryX=0.5;entryY=1;entryDx=0;entryDy=0;sketch=1;curveFitting=1;jiggle=2;endArrow=none;endFill=0;exitX=0.5;exitY=0;exitDx=0;exitDy=0;" parent="1" source="Isf6Fnb0qAEW2lczfsNk-4" target="Isf6Fnb0qAEW2lczfsNk-39" edge="1">
          <mxGeometry relative="1" as="geometry">
            <mxPoint x="580" y="700" as="sourcePoint" />
            <mxPoint x="690" y="636" as="targetPoint" />
          </mxGeometry>
        </mxCell>
        <mxCell id="Isf6Fnb0qAEW2lczfsNk-46" style="rounded=1;orthogonalLoop=1;jettySize=auto;html=1;entryX=0.244;entryY=0.888;entryDx=0;entryDy=0;sketch=1;curveFitting=1;jiggle=2;endArrow=none;endFill=0;exitX=0.75;exitY=0;exitDx=0;exitDy=0;entryPerimeter=0;" parent="1" source="Isf6Fnb0qAEW2lczfsNk-4" target="Isf6Fnb0qAEW2lczfsNk-40" edge="1">
          <mxGeometry relative="1" as="geometry">
            <mxPoint x="670" y="678" as="sourcePoint" />
            <mxPoint x="780" y="614" as="targetPoint" />
          </mxGeometry>
        </mxCell>
        <mxCell id="Isf6Fnb0qAEW2lczfsNk-47" style="rounded=1;orthogonalLoop=1;jettySize=auto;html=1;entryX=0;entryY=1;entryDx=0;entryDy=0;sketch=1;curveFitting=1;jiggle=2;endArrow=none;endFill=0;exitX=0.75;exitY=0;exitDx=0;exitDy=0;" parent="1" source="Isf6Fnb0qAEW2lczfsNk-4" target="Isf6Fnb0qAEW2lczfsNk-41" edge="1">
          <mxGeometry relative="1" as="geometry">
            <mxPoint x="690" y="634" as="sourcePoint" />
            <mxPoint x="800" y="570" as="targetPoint" />
          </mxGeometry>
        </mxCell>
        <mxCell id="Isf6Fnb0qAEW2lczfsNk-48" value="Operate" style="rhombus;whiteSpace=wrap;html=1;fillColor=#dae8fc;strokeColor=#6c8ebf;fillStyle=hatch;sketch=1;curveFitting=1;jiggle=2;" parent="1" vertex="1">
          <mxGeometry x="330" y="530" width="140" height="80" as="geometry" />
        </mxCell>
        <mxCell id="Isf6Fnb0qAEW2lczfsNk-49" style="rounded=1;orthogonalLoop=1;jettySize=auto;html=1;entryX=1;entryY=0.5;entryDx=0;entryDy=0;sketch=1;curveFitting=1;jiggle=2;endArrow=none;endFill=0;exitX=0;exitY=0.5;exitDx=0;exitDy=0;" parent="1" source="Isf6Fnb0qAEW2lczfsNk-4" target="Isf6Fnb0qAEW2lczfsNk-48" edge="1">
          <mxGeometry relative="1" as="geometry">
            <mxPoint x="756" y="740" as="sourcePoint" />
            <mxPoint x="756" y="570" as="targetPoint" />
          </mxGeometry>
        </mxCell>
        <mxCell id="Isf6Fnb0qAEW2lczfsNk-50" style="rounded=1;orthogonalLoop=1;jettySize=auto;html=1;entryX=0.5;entryY=1;entryDx=0;entryDy=0;sketch=1;curveFitting=1;jiggle=2;endArrow=none;endFill=0;" parent="1" edge="1">
          <mxGeometry relative="1" as="geometry">
            <mxPoint x="940" y="820" as="sourcePoint" />
            <mxPoint x="950" y="650" as="targetPoint" />
          </mxGeometry>
        </mxCell>
        <mxCell id="Isf6Fnb0qAEW2lczfsNk-51" value="N" style="text;html=1;align=center;verticalAlign=middle;resizable=0;points=[];autosize=1;strokeColor=none;fillColor=none;" parent="1" vertex="1">
          <mxGeometry x="285" y="548" width="30" height="30" as="geometry" />
        </mxCell>
        <mxCell id="Isf6Fnb0qAEW2lczfsNk-52" value="1" style="text;html=1;align=center;verticalAlign=middle;resizable=0;points=[];autosize=1;strokeColor=none;fillColor=none;" parent="1" vertex="1">
          <mxGeometry x="480" y="548" width="30" height="30" as="geometry" />
        </mxCell>
        <mxCell id="Isf6Fnb0qAEW2lczfsNk-53" value="Judge" style="rhombus;whiteSpace=wrap;html=1;fillColor=#dae8fc;strokeColor=#6c8ebf;fillStyle=hatch;sketch=1;curveFitting=1;jiggle=2;" parent="1" vertex="1">
          <mxGeometry x="722" y="530" width="140" height="80" as="geometry" />
        </mxCell>
        <mxCell id="Isf6Fnb0qAEW2lczfsNk-54" style="rounded=1;orthogonalLoop=1;jettySize=auto;html=1;entryX=0.5;entryY=1;entryDx=0;entryDy=0;sketch=1;curveFitting=1;jiggle=2;endArrow=none;endFill=0;" parent="1" source="Isf6Fnb0qAEW2lczfsNk-5" target="Isf6Fnb0qAEW2lczfsNk-62" edge="1">
          <mxGeometry relative="1" as="geometry">
            <mxPoint x="1130" y="505" as="sourcePoint" />
            <mxPoint x="1140" y="335" as="targetPoint" />
          </mxGeometry>
        </mxCell>
        <mxCell id="Isf6Fnb0qAEW2lczfsNk-55" style="rounded=1;orthogonalLoop=1;jettySize=auto;html=1;entryX=0.5;entryY=1;entryDx=0;entryDy=0;sketch=1;curveFitting=1;jiggle=2;endArrow=none;endFill=0;exitX=0.5;exitY=0;exitDx=0;exitDy=0;" parent="1" source="Isf6Fnb0qAEW2lczfsNk-5" target="Isf6Fnb0qAEW2lczfsNk-60" edge="1">
          <mxGeometry relative="1" as="geometry">
            <mxPoint x="910" y="525" as="sourcePoint" />
            <mxPoint x="920" y="355" as="targetPoint" />
          </mxGeometry>
        </mxCell>
        <mxCell id="Isf6Fnb0qAEW2lczfsNk-56" style="rounded=1;orthogonalLoop=1;jettySize=auto;html=1;entryX=0.5;entryY=1;entryDx=0;entryDy=0;sketch=1;curveFitting=1;jiggle=2;endArrow=none;endFill=0;exitX=0.25;exitY=0;exitDx=0;exitDy=0;" parent="1" source="Isf6Fnb0qAEW2lczfsNk-5" target="Isf6Fnb0qAEW2lczfsNk-59" edge="1">
          <mxGeometry relative="1" as="geometry">
            <mxPoint x="920" y="535" as="sourcePoint" />
            <mxPoint x="930" y="365" as="targetPoint" />
          </mxGeometry>
        </mxCell>
        <mxCell id="Isf6Fnb0qAEW2lczfsNk-57" style="rounded=1;orthogonalLoop=1;jettySize=auto;html=1;sketch=1;curveFitting=1;jiggle=2;endArrow=none;endFill=0;exitX=1;exitY=0.5;exitDx=0;exitDy=0;" parent="1" source="Isf6Fnb0qAEW2lczfsNk-53" target="Isf6Fnb0qAEW2lczfsNk-5" edge="1">
          <mxGeometry relative="1" as="geometry">
            <mxPoint x="930" y="545" as="sourcePoint" />
            <mxPoint x="940" y="375" as="targetPoint" />
          </mxGeometry>
        </mxCell>
        <mxCell id="Isf6Fnb0qAEW2lczfsNk-58" style="rounded=1;orthogonalLoop=1;jettySize=auto;html=1;entryX=0;entryY=0.5;entryDx=0;entryDy=0;sketch=1;curveFitting=1;jiggle=2;endArrow=none;endFill=0;exitX=1;exitY=0.5;exitDx=0;exitDy=0;" parent="1" source="Isf6Fnb0qAEW2lczfsNk-4" target="Isf6Fnb0qAEW2lczfsNk-53" edge="1">
          <mxGeometry relative="1" as="geometry">
            <mxPoint x="940" y="555" as="sourcePoint" />
            <mxPoint x="950" y="385" as="targetPoint" />
          </mxGeometry>
        </mxCell>
        <mxCell id="Isf6Fnb0qAEW2lczfsNk-59" value="id" style="ellipse;whiteSpace=wrap;html=1;fillColor=#fff2cc;strokeColor=#d6b656;fillStyle=hatch;sketch=1;curveFitting=1;jiggle=2;" parent="1" vertex="1">
          <mxGeometry x="862" y="450" width="90" height="40" as="geometry" />
        </mxCell>
        <mxCell id="Isf6Fnb0qAEW2lczfsNk-60" value="Authority Id" style="ellipse;whiteSpace=wrap;html=1;fillColor=#fff2cc;strokeColor=#d6b656;fillStyle=hatch;sketch=1;curveFitting=1;jiggle=2;" parent="1" vertex="1">
          <mxGeometry x="955" y="400" width="90" height="40" as="geometry" />
        </mxCell>
        <mxCell id="Isf6Fnb0qAEW2lczfsNk-62" value="User Id" style="ellipse;whiteSpace=wrap;html=1;fillColor=#fff2cc;strokeColor=#d6b656;fillStyle=hatch;sketch=1;curveFitting=1;jiggle=2;" parent="1" vertex="1">
          <mxGeometry x="1045" y="450" width="90" height="40" as="geometry" />
        </mxCell>
      </root>
    </mxGraphModel>
  </diagram>
</mxfile>
